<svg width="72" height="72" viewBox="0 0 72 72" fill="none" xmlns="http://www.w3.org/2000/svg">
<path d="M36 72C26.4555 71.9892 17.3051 68.1929 10.5561 61.4439C3.80713 54.695 0.0108134 45.5445 1.47058e-05 36V35.76C-0.004247 31.0627 0.917804 26.4107 2.7134 22.0702C4.509 17.7297 7.1429 13.7858 10.4644 10.4644C13.7858 7.1429 17.7297 4.509 22.0702 2.7134C26.4107 0.917804 31.0627 -0.004247 35.76 1.47058e-05H36C45.5478 1.47058e-05 54.7046 3.79286 61.4559 10.5442C68.2072 17.2955 72 26.4522 72 36C72 45.5478 68.2072 54.7046 61.4559 61.4559C54.7046 68.2072 45.5478 72 36 72ZM32.4792 39.4656H39.1812L43.164 53.346H56.2992L52.3392 39.4656H57.1296V36.3912H51.4452L50.814 34.1724H57.1308V31.1448H49.9416L45.48 15.5076H26.1924L21.72 31.1448H14.5416V34.1736H20.8524L20.2212 36.3924H14.5416V39.4668H19.326L15.3744 53.346H28.5216L32.4816 39.4656H32.4792ZM50.7504 50.3124H46.9776L43.8744 39.4668H47.6472L50.7492 50.3124H50.7504ZM24.6888 50.3124H20.9088L24.018 39.4668H27.792L24.6888 50.3124ZM46.7748 36.3924H42.9792L42.3492 34.1736H46.128L46.7748 36.3912V36.3924ZM38.3088 36.3924H33.3744L34.0104 34.1736H37.662L38.3088 36.3912V36.3924ZM28.6872 36.3924H24.9084L25.5384 34.1736H29.3112L28.6872 36.3924ZM45.2544 31.146H41.4984L38.2284 19.746H42.0072L45.2544 31.146ZM36.8124 31.146H34.8828L35.8356 27.7716L36.8124 31.146ZM30.1836 31.146H26.4108L29.658 19.746H33.438L30.1848 31.146H30.1836Z" fill="white"/>
</svg>
