<svg width="32" height="32" viewBox="0 0 32 32" fill="none" xmlns="http://www.w3.org/2000/svg">
<path d="M16 32C11.758 31.9952 7.69114 30.308 4.6916 27.3084C1.69206 24.3089 0.00480597 20.242 6.53593e-06 16V15.8933C-0.00188756 13.8057 0.407913 11.7381 1.20596 9.80898C2.004 7.87986 3.17462 6.12704 4.65083 4.65083C6.12704 3.17462 7.87986 2.004 9.80898 1.20596C11.7381 0.407913 13.8057 -0.00188756 15.8933 6.53593e-06H16C20.2435 6.53593e-06 24.3131 1.68572 27.3137 4.6863C30.3143 7.68688 32 11.7565 32 16C32 20.2435 30.3143 24.3131 27.3137 27.3137C24.3131 30.3143 20.2435 32 16 32ZM14.4352 17.5403H17.4139L19.184 23.7093H25.0219L23.2619 17.5403H25.3909V16.1739H22.8645L22.584 15.1877H25.3915V13.8421H22.1963L20.2133 6.89227H11.6411L9.65334 13.8421H6.46294V15.1883H9.26774L8.98721 16.1744H6.46294V17.5408H8.58934L6.83307 23.7093H12.6763L14.4363 17.5403H14.4352ZM22.5557 22.3611H20.8789L19.4997 17.5408H21.1765L22.5552 22.3611H22.5557ZM10.9728 22.3611H9.29281L10.6747 17.5408H12.352L10.9728 22.3611ZM20.7888 16.1744H19.1019L18.8219 15.1883H20.5013L20.7888 16.1739V16.1744ZM17.0261 16.1744H14.8331L15.1157 15.1883H16.7387L17.0261 16.1739V16.1744ZM12.7499 16.1744H11.0704L11.3504 15.1883H13.0272L12.7499 16.1744ZM20.1131 13.8427H18.4437L16.9904 8.77601H18.6699L20.1131 13.8427ZM16.3611 13.8427H15.5035L15.9269 12.3429L16.3611 13.8427ZM13.4149 13.8427H11.7381L13.1813 8.77601H14.8613L13.4155 13.8427H13.4149Z" fill="#00665E"/>
</svg>
