<svg width="24" height="24" viewBox="0 0 24 24" fill="none" xmlns="http://www.w3.org/2000/svg">
<g clip-path="url(#clip0_4_2335)">
<path d="M24 12.002C24.0082 18.568 18.6867 24 12.002 24C5.31742 24 -0.00409111 18.5639 2.36003e-06 11.9939C0.00409583 5.42384 5.31742 0 12.0061 0C18.6949 0 24.0123 5.44022 24 12.002Z" fill="#FE9B00"/>
<path d="M21.2246 13.4921C21.2041 13.4512 21.2205 13.4185 21.2205 13.3857C21.2901 12.6734 20.8357 12.0431 20.148 11.8957C19.6977 11.8015 19.2966 11.9284 18.9527 12.2232C18.5352 12.5793 18.1381 12.96 17.7451 13.3448C17.2662 13.8155 16.7968 14.2945 16.337 14.7816C16.0136 15.1254 15.637 15.3915 15.1867 15.5471C13.9178 15.981 12.5301 15.3014 12.047 14.1225C11.9897 13.9793 11.9938 13.9506 12.1084 13.8524C12.3745 13.619 12.6447 13.3898 12.9108 13.1565C12.9189 13.1483 12.9271 13.1442 12.9353 13.136C12.9681 13.1155 12.9926 13.0664 13.0336 13.0869C13.0745 13.1074 13.0499 13.1524 13.054 13.1851C13.0702 13.5016 13.1964 13.8025 13.411 14.0357C13.6255 14.2689 13.9148 14.4198 14.2289 14.4623C14.8797 14.5523 15.5306 14.1553 15.7271 13.5331C15.9604 12.7962 15.5715 12.0635 14.8183 11.822C14.3598 11.6746 13.9423 11.7729 13.578 12.0758C13.2792 12.3214 12.9926 12.5793 12.702 12.8372C12.5096 13.0091 12.3172 13.1851 12.1207 13.353C12.0458 13.4173 11.9952 13.5055 11.9775 13.6027C11.8219 14.3927 11.3798 14.9822 10.6798 15.371C10.2415 15.6155 9.73776 15.7171 9.23892 15.6617C8.6964 15.6153 8.18359 15.3941 7.77755 15.0313C7.49047 14.7795 7.26619 14.4641 7.1226 14.1102C7.11401 14.0932 7.10715 14.0754 7.10213 14.057C7.08773 14.0271 7.08435 13.993 7.09258 13.9608C7.10082 13.9286 7.12014 13.9004 7.14716 13.881C7.24131 13.8032 7.33137 13.7255 7.42551 13.6477C7.61791 13.4799 7.8103 13.312 8.00679 13.1483C8.03954 13.1196 8.07228 13.0705 8.11322 13.0869C8.15415 13.1033 8.13778 13.1606 8.14187 13.2015C8.15135 13.5104 8.26357 13.8074 8.46078 14.0454C8.65799 14.2834 8.92893 14.4488 9.23073 14.5155C9.57199 14.5882 9.92812 14.5278 10.2264 14.3468C10.5246 14.1657 10.7424 13.8776 10.8354 13.5413C11.081 12.6366 10.3646 11.7442 9.43131 11.7893C9.14688 11.7977 8.87388 11.9031 8.65765 12.0881C8.39157 12.3091 8.12959 12.5384 7.8717 12.7676C7.60563 13.0009 7.34365 13.2383 7.07757 13.4717C7.04189 13.5008 7.01338 13.5377 6.99422 13.5796C6.97505 13.6214 6.96576 13.6672 6.96705 13.7132V15.4897C6.96705 15.6576 6.94249 15.6821 6.77465 15.678C6.61693 15.678 6.46107 15.6439 6.31768 15.5782C6.17429 15.5126 6.04673 15.4168 5.94368 15.2974C5.86181 15.2032 5.84544 15.2032 5.73491 15.2646C5.32966 15.4897 4.89985 15.6125 4.43728 15.5962C3.4876 15.5634 2.76306 15.1336 2.27184 14.319C2.04058 13.9351 1.92147 13.4941 1.92799 13.0459C1.92843 12.4577 2.13563 11.8882 2.51335 11.4372C2.89814 10.9665 3.38936 10.6595 3.9911 10.5612C4.79342 10.4343 5.53024 10.5817 6.14835 11.1425C6.34475 11.3215 6.51555 11.5268 6.65594 11.7524C6.67607 11.7977 6.71061 11.8352 6.75419 11.8588C6.78421 11.8396 6.80868 11.8129 6.8252 11.7813C6.84171 11.7497 6.84969 11.7144 6.84834 11.6787C6.84424 11.2735 6.84834 10.8682 6.84834 10.4589C6.84834 9.53785 6.84697 8.61819 6.84424 7.69989C6.84424 7.51978 6.86471 7.49931 7.04892 7.49931C7.32055 7.49964 7.58255 7.59999 7.7849 7.7812C7.98725 7.96241 8.11578 8.21179 8.14597 8.48174C8.15413 8.54692 8.15823 8.61254 8.15825 8.67823V10.8273C8.16234 10.9255 8.18281 10.9378 8.27286 10.8928C8.53602 10.7534 8.82132 10.6606 9.11612 10.6185C9.84885 10.5162 10.5038 10.7004 11.0851 11.1589C11.2796 11.3152 11.4494 11.5002 11.5886 11.7074C11.5967 11.722 11.6063 11.7357 11.6172 11.7483C11.6459 11.7893 11.6704 11.8343 11.7237 11.8425C11.7523 11.8466 11.8342 11.7401 11.8383 11.6951C11.8452 11.6394 11.8479 11.5833 11.8465 11.5273V8.64957C11.8465 8.05602 12.2149 7.60983 12.8002 7.49931C12.8646 7.4842 12.9306 7.47733 12.9967 7.47884C13.0827 7.48294 13.1195 7.51568 13.14 7.59755C13.1536 7.66212 13.1591 7.72812 13.1564 7.79404V10.8191C13.1646 10.8723 13.1809 10.8887 13.2341 10.8682C13.3037 10.8396 13.3733 10.8068 13.4429 10.7782C14.4253 10.3852 15.5265 10.6226 16.2388 11.384C16.4778 11.6415 16.6641 11.9432 16.7873 12.2723L16.8118 12.346C16.8528 12.4524 16.8651 12.4565 16.951 12.3787L18.1054 11.3594C18.4289 11.0645 18.8218 10.8561 19.2474 10.7536C19.8448 10.6137 20.4726 10.6935 21.0161 10.9784C21.5595 11.2632 21.9822 11.7341 22.207 12.305C22.2306 12.3517 22.2377 12.405 22.2273 12.4562C22.2169 12.5074 22.1896 12.5537 22.1497 12.5875C21.8673 12.8658 21.593 13.1483 21.3106 13.4307C21.2865 13.457 21.2572 13.4779 21.2246 13.4921Z" fill="#191C31"/>
<path d="M20.1153 14.6014C20.1143 14.617 20.1097 14.6321 20.1019 14.6456C20.0941 14.6591 20.0833 14.6706 20.0703 14.6792C19.7715 14.978 19.4727 15.2768 19.1779 15.5797C19.1539 15.608 19.1213 15.6276 19.0852 15.6357C19.049 15.6438 19.0111 15.64 18.9773 15.6248C18.2733 15.3628 17.7752 14.8866 17.4832 14.1961C17.4382 14.0938 17.4464 14.0611 17.5283 13.9915C17.8189 13.7377 18.1136 13.4839 18.4043 13.2342C18.4226 13.2136 18.447 13.1993 18.4739 13.1932C18.5025 13.2219 18.4943 13.2587 18.4984 13.2915C18.5131 13.484 18.5616 13.6725 18.6417 13.8482C18.8341 14.2494 19.1616 14.4786 19.5832 14.5809C19.6731 14.6014 19.7653 14.6097 19.8574 14.6055C19.9393 14.5973 20.0253 14.6014 20.1153 14.6014Z" fill="#191C31"/>
<path d="M5.84961 13.0786C5.87008 13.8073 5.24787 14.4418 4.49058 14.45C4.12877 14.4518 3.78095 14.3103 3.5232 14.0564C3.26545 13.8025 3.11875 13.4568 3.11518 13.095C3.1029 12.35 3.68826 11.7114 4.49058 11.695C5.2315 11.6787 5.8537 12.2845 5.84961 13.0786Z" fill="#FF9C00"/>
</g>
<defs>
<clipPath id="clip0_4_2335">
<rect width="24" height="24" fill="white"/>
</clipPath>
</defs>
</svg>
