<svg width="109" height="95" viewBox="0 0 109 95" fill="none" xmlns="http://www.w3.org/2000/svg">
<path fill-rule="evenodd" clip-rule="evenodd" d="M35.9519 47.4421C48.5959 44.3931 61.779 44.3931 74.423 47.4421C75.5918 47.6523 76.643 48.2863 77.3769 49.2236C77.6338 49.4924 77.8572 49.7915 78.0422 50.1144L86.7707 62.3535L92.0929 47.6559C92.3817 46.4601 93.1315 45.4284 94.1775 44.7876L100.138 40.3338C100.446 40.1037 100.831 40.0054 101.21 40.0605C101.589 40.1156 101.931 40.3197 102.161 40.6278C102.274 40.7797 102.356 40.9527 102.403 41.1366C102.45 41.3206 102.459 41.5119 102.432 41.6998C102.405 41.8876 102.341 42.0682 102.244 42.2312C102.148 42.3942 102.02 42.5365 101.868 42.6498L98.391 45.2686C98.7014 45.3933 99.0208 45.527 99.3312 45.6784L103.146 43.1753C103.391 43.0136 103.691 42.9566 103.979 43.0167C104.267 43.0768 104.519 43.2492 104.68 43.496C104.842 43.7443 104.899 44.0467 104.839 44.3371C104.779 44.6275 104.607 44.8824 104.361 45.0459L102.427 46.3197H107.403C107.826 46.3221 108.231 46.4918 108.53 46.7919C108.829 47.0921 108.998 47.4986 109 47.9231C108.998 48.3468 108.828 48.7523 108.529 49.0511C108.23 49.3499 107.825 49.5176 107.403 49.5176H103.092C102.907 50.1294 102.672 50.7251 102.392 51.2991L93.1397 78.1378C92.7948 79.1196 92.1777 79.982 91.361 80.6233C90.5442 81.2645 89.562 81.6579 88.53 81.7572C87.4979 81.8564 86.4592 81.6573 85.5361 81.1833C84.6131 80.7094 83.8442 79.9803 83.3201 79.082L74.973 66.2105C73.6956 74.2986 72.5691 87.4909 70.5378 95H39.8283C37.7171 87.1791 36.5285 73.5237 35.1979 65.097L26.1501 79.082C25.626 79.9803 24.8571 80.7094 23.934 81.1833C23.0109 81.6573 21.9722 81.8564 20.9402 81.7572C19.9082 81.6579 18.9259 81.2645 18.1092 80.6233C17.2925 79.982 16.6753 79.1196 16.3305 78.1378L7.09635 51.3258C6.81624 50.7504 6.57904 50.155 6.38672 49.5443H2.0402C1.82977 49.5431 1.62164 49.5002 1.42778 49.418C1.23393 49.3358 1.05817 49.2159 0.910607 49.0653C0.763048 48.9146 0.646603 48.7361 0.567965 48.5401C0.489328 48.3441 0.450051 48.1344 0.452393 47.9231C0.452386 47.4994 0.619389 47.0929 0.916909 46.7925C1.21443 46.4921 1.61828 46.3221 2.0402 46.3197H7.01652L5.07389 45.037C4.8261 44.8749 4.65241 44.6207 4.59089 44.3302C4.52937 44.0396 4.58504 43.7365 4.74569 43.4871C4.9101 43.2416 5.16375 43.0705 5.45227 43.0106C5.74079 42.9506 6.04121 43.0066 6.28914 43.1664L10.1034 45.6695C10.4139 45.5181 10.7332 45.3844 11.0437 45.2597L7.55762 42.6409C7.40667 42.5269 7.27957 42.3842 7.1836 42.2208C7.08763 42.0575 7.02466 41.8767 6.9983 41.6889C6.97193 41.5012 6.98269 41.31 7.02996 41.1264C7.07723 40.9427 7.16007 40.7703 7.27376 40.6188C7.38661 40.4666 7.52826 40.3382 7.6906 40.241C7.85294 40.1438 8.03278 40.0797 8.21983 40.0524C8.40687 40.0251 8.59744 40.0351 8.78063 40.0818C8.96381 40.1286 9.13601 40.2112 9.28735 40.3249L15.2572 44.7787C16.3012 45.4217 17.0503 46.4524 17.3417 47.647L22.664 62.3446L31.4014 50.0877C31.8818 49.3257 32.5332 48.6872 33.3033 48.2232C34.0734 47.7592 34.941 47.4825 35.8366 47.4154H35.9253L35.9519 47.4421ZM12.0017 17.1027V16.7553C11.9848 16.0998 12.0474 15.4448 12.188 14.8045C12.2906 14.377 12.4876 13.9782 12.7646 13.6376C13.0217 13.3303 13.3203 13.0605 13.6516 12.8359C13.9621 12.631 14.2459 12.4351 14.5387 12.2391C14.7652 12.0669 14.9629 11.8594 15.1241 11.6245C15.2741 11.4078 15.3517 11.1489 15.3459 10.8851C15.3497 10.6558 15.2881 10.4302 15.1685 10.2349C15.0522 10.0453 14.8866 9.89131 14.6895 9.7895C14.4791 9.68823 14.2486 9.63644 14.0153 9.63807C13.7691 9.63031 13.5249 9.68548 13.3057 9.79841C13.0837 9.91658 12.897 10.0918 12.7646 10.3061C12.6241 10.533 12.5532 10.7963 12.5605 11.0633H8.764C8.72551 10.1172 8.98297 9.1827 9.50024 8.391C9.98921 7.73299 10.6579 7.23168 11.4251 6.94796C12.2583 6.61959 13.1469 6.45625 14.0419 6.46695C14.9993 6.45076 15.9518 6.60766 16.8538 6.93015C17.6233 7.20116 18.3022 7.6824 18.8142 8.31974C19.3084 9.00702 19.5555 9.84244 19.515 10.6892C19.5351 11.2074 19.4424 11.7238 19.2432 12.2022C19.044 12.6807 18.7432 13.1098 18.3618 13.4594C17.9779 13.8045 17.5551 14.1035 17.1022 14.3502C16.7825 14.5284 16.4848 14.7436 16.2152 14.9916C15.9837 15.2014 15.7967 15.4559 15.6652 15.7398C15.541 16.0635 15.4807 16.4084 15.4878 16.7553V17.1027H12.0017ZM13.7758 22.082C13.5042 22.0883 13.2341 22.0386 12.9824 21.936C12.7306 21.8333 12.5025 21.6799 12.3122 21.4852C12.1136 21.2972 11.9571 21.0689 11.8532 20.8155C11.7492 20.5621 11.7 20.2894 11.709 20.0155C11.7014 19.7444 11.7513 19.4747 11.8553 19.2244C11.9592 18.9741 12.115 18.7489 12.3122 18.5635C12.5025 18.3688 12.7306 18.2154 12.9824 18.1128C13.2341 18.0101 13.5042 17.9604 13.7758 17.9667C14.1404 17.9548 14.5014 18.0426 14.8203 18.2207C15.1391 18.3988 15.4037 18.6605 15.5859 18.978C15.7681 19.2954 15.8609 19.6565 15.8546 20.0228C15.8483 20.3891 15.7429 20.7468 15.5499 21.0577C15.3617 21.364 15.1031 21.6205 14.7959 21.8059C14.4907 21.9901 14.1407 22.0857 13.7847 22.082H13.7758ZM5.23356 0H23.7639C24.9653 0.0025412 26.1167 0.482984 26.9661 1.33615L27.0549 1.42522C27.4286 1.83319 27.7288 2.30342 27.9419 2.81481C28.1744 3.37952 28.2921 3.98527 28.2878 4.59634V26.2152C28.2862 26.8113 28.1687 27.4013 27.9419 27.9522C27.7085 28.4898 27.3777 28.9791 26.9661 29.3952C26.1167 30.2484 24.9653 30.7288 23.7639 30.7314H22.664L22.3003 34.8467C22.2792 35.1061 22.1856 35.3542 22.0301 35.5624C21.8747 35.7707 21.6639 35.9306 21.4218 36.0237C21.1798 36.1168 20.9166 36.1393 20.6624 36.0887C20.4082 36.0381 20.1734 35.9163 19.9851 35.7375L13.8379 30.767H4.5328C3.93542 30.7611 3.34508 30.6369 2.79559 30.4015C2.2461 30.1661 1.74825 29.8241 1.33057 29.3952L1.25073 29.3061C0.872554 28.9016 0.571851 28.4305 0.363688 27.9165C0.135267 27.378 0.0118082 26.8004 0 26.2152L0 4.55181C0.00161638 3.95571 0.119131 3.36568 0.345947 2.81481C0.578077 2.26383 0.91219 1.76207 1.33057 1.33615C2.17998 0.482984 3.33142 0.0025412 4.5328 0L5.23356 0ZM23.7639 2.77028H4.5328C4.30135 2.7681 4.07191 2.81358 3.85864 2.90389C3.64256 2.99501 3.44659 3.12822 3.28206 3.29583C3.11723 3.46093 2.98747 3.6579 2.90063 3.87482C2.8107 4.08899 2.76542 4.31939 2.76758 4.55181V26.2152C2.76542 26.4476 2.8107 26.678 2.90063 26.8922C2.98015 27.0845 3.09107 27.2621 3.22884 27.4177L3.29093 27.4712C3.45541 27.6411 3.65124 27.7772 3.86751 27.872C4.08261 27.9551 4.3112 27.9974 4.54167 27.9967H14.0419C14.3281 27.9986 14.6113 28.056 14.8757 28.166C15.1288 28.2749 15.3601 28.4288 15.5588 28.6203L19.79 32.0675L19.9496 30.1969C19.9521 29.669 20.1442 29.1598 20.4907 28.7628C20.8558 28.3477 21.3618 28.0841 21.91 28.0234H22.1229H23.7639C23.9944 28.0241 24.223 27.9818 24.4381 27.8987C24.6543 27.804 24.8502 27.6678 25.0147 27.4979C25.1793 27.3308 25.3117 27.1345 25.4049 26.9189C25.4877 26.7029 25.5298 26.4733 25.5291 26.2419V4.55181C25.5298 4.32037 25.4877 4.09083 25.4049 3.87482C25.3223 3.68213 25.2084 3.50454 25.0679 3.34927L25.0147 3.29583C24.8501 3.12822 24.6542 2.99501 24.4381 2.90389C24.2248 2.81358 23.9954 2.7681 23.7639 2.77028ZM91.0551 23.5874V23.2311C91.0382 22.5786 91.1008 21.9265 91.2414 21.2893C91.3439 20.8591 91.5409 20.4573 91.818 20.1135C92.0777 19.8113 92.376 19.5447 92.705 19.3207C93.0155 19.1158 93.2993 18.9109 93.592 18.715C93.8199 18.5478 94.0179 18.343 94.1775 18.1092C94.3248 17.8913 94.4021 17.6333 94.3993 17.3699C94.4028 17.1378 94.3413 16.9094 94.2218 16.7107C94.1051 16.5239 93.9394 16.3729 93.7428 16.2743C93.5325 16.173 93.3019 16.1212 93.0687 16.1228C92.814 16.1189 92.5628 16.1835 92.3413 16.3099C92.1156 16.4226 91.9275 16.5991 91.8002 16.8176C91.6588 17.0441 91.5878 17.3076 91.5962 17.5748H87.8174C87.7789 16.6287 88.0364 15.6942 88.5536 14.9025C89.0376 14.2313 89.7068 13.7172 90.4785 13.4238C91.3267 13.0948 92.2305 12.9344 93.1397 12.9517C94.1 12.9345 95.0556 13.0914 95.9605 13.4149C96.7315 13.6829 97.4112 14.1647 97.9208 14.8045C98.4098 15.4779 98.6597 16.2965 98.6305 17.1294C98.6428 17.6705 98.54 18.208 98.3289 18.706C98.115 19.1565 97.8134 19.5594 97.4418 19.8908C97.0606 20.2544 96.6378 20.5713 96.1822 20.835C95.8625 21.0131 95.5648 21.2284 95.2952 21.4763C95.0598 21.6826 94.8721 21.9379 94.7452 22.2246C94.6206 22.5451 94.5603 22.8871 94.5678 23.2311V23.5874H91.0551ZM92.8292 28.5668C92.557 28.5714 92.2867 28.5201 92.035 28.4159C91.7833 28.3117 91.5555 28.157 91.3656 27.9611C91.167 27.773 91.0105 27.5448 90.9065 27.2914C90.8026 27.038 90.7534 26.7653 90.7624 26.4913C90.7555 26.2216 90.8057 25.9535 90.9097 25.7048C91.0137 25.456 91.1691 25.2323 91.3656 25.0483C91.7507 24.6664 92.2702 24.4523 92.8114 24.4523C93.3527 24.4523 93.8722 24.6664 94.2573 25.0483C94.4568 25.2319 94.6164 25.4547 94.7263 25.703C94.8362 25.9513 94.894 26.2196 94.896 26.4913C94.8926 26.8627 94.7884 27.2262 94.5944 27.5424C94.4062 27.8487 94.1476 28.1053 93.8404 28.2907C93.5353 28.4749 93.1852 28.5704 92.8292 28.5668ZM102.081 9.58462H83.5773C83.3459 9.58245 83.1164 9.62792 82.9032 9.71824C82.6871 9.80936 82.4911 9.94257 82.3266 10.1102L82.2645 10.1636C82.124 10.3189 82.0101 10.4965 81.9274 10.6892C81.8438 10.908 81.8017 11.1407 81.8032 11.3751V29.6179C81.8017 29.8523 81.8438 30.0849 81.9274 30.3038C82.0229 30.5182 82.155 30.7141 82.3177 30.8828C82.4822 31.0504 82.6782 31.1836 82.8943 31.2747C83.1076 31.365 83.337 31.4105 83.5684 31.4083H85.2095H85.4224C85.9716 31.4656 86.4787 31.7298 86.8416 32.1477C87.1897 32.5402 87.3822 33.0473 87.3827 33.5729L87.5424 35.4524L91.7825 32.0675C91.9792 31.8759 92.2112 31.7247 92.4655 31.6221C92.7302 31.5131 93.0132 31.4556 93.2993 31.4529H102.808C103.04 31.4551 103.269 31.4096 103.483 31.3193C103.699 31.2281 103.895 31.0949 104.059 30.9273L104.121 30.8739C104.424 30.544 104.592 30.1113 104.591 29.6624V11.3751C104.59 11.1401 104.545 10.9074 104.458 10.6892C104.361 10.476 104.229 10.2804 104.068 10.1102C103.904 9.94257 103.708 9.80936 103.491 9.71824C103.278 9.62792 103.049 9.58245 102.817 9.58462H102.081ZM83.5773 6.81435H102.808C103.403 6.81549 103.991 6.93666 104.538 7.17065C105.089 7.39937 105.59 7.73542 106.011 8.1594C106.433 8.5803 106.769 9.08127 106.997 9.63327C107.225 10.1853 107.342 10.7773 107.341 11.3751V29.6179C107.345 30.229 107.228 30.8347 106.995 31.3994C106.782 31.9081 106.482 32.3754 106.108 32.7801L106.02 32.8781C105.59 33.2908 105.087 33.62 104.538 33.849C103.99 34.0768 103.402 34.1948 102.808 34.1964H93.5033L87.3561 39.1936C87.1336 39.4119 86.8414 39.5444 86.5312 39.5677C86.3503 39.5848 86.1678 39.5655 85.9944 39.5109C85.821 39.4563 85.6602 39.3675 85.5215 39.2497C85.3827 39.1319 85.2687 38.9875 85.1862 38.8249C85.1037 38.6623 85.0543 38.4848 85.0409 38.3029L84.6772 34.1875H83.5773C82.9688 34.1918 82.3656 34.0737 81.8032 33.8401C81.2557 33.6048 80.7565 33.2695 80.3307 32.8514C79.9081 32.4305 79.5728 31.9295 79.3444 31.3775C79.116 30.8255 78.999 30.2335 79.0002 29.6357V11.3751C78.9962 10.764 79.1138 10.1583 79.3461 9.59353C79.5593 9.08486 79.8595 8.61758 80.2332 8.21285L80.3219 8.12377C80.7429 7.69979 81.2433 7.36374 81.7944 7.13502C82.3551 6.89511 82.959 6.77382 83.5684 6.77872L83.5773 6.81435ZM54.4113 5.87014C57.9454 5.86837 61.4007 6.91926 64.3399 8.88986C67.2792 10.8605 69.5704 13.6622 70.9236 16.9407C72.2769 20.2191 72.6314 23.827 71.9424 27.3079C71.2534 30.7887 69.5517 33.9861 67.0527 36.4956C64.5537 39.0051 61.3696 40.7139 57.9033 41.4058C54.437 42.0978 50.8442 41.7417 47.5794 40.3828C44.3146 39.0239 41.5246 36.7231 39.5622 33.7715C37.5998 30.8199 36.5533 27.3502 36.5551 23.8012C36.5574 19.0463 38.4395 14.4869 41.7877 11.1246C45.1358 7.76242 49.6763 5.8725 54.4113 5.87014Z" fill="#EEEEEE"/>
</svg>
